<svg width="150" height="23" viewBox="0 0 150 23" fill="none" xmlns="http://www.w3.org/2000/svg">
<path d="M33.7704 22.5184C36.9842 22.5184 39.4941 20.958 40.8102 18.235L37.4739 16.5523C36.77 17.9597 35.3926 18.7552 33.7398 18.7552C31.5667 18.7552 30.0056 17.4089 29.6996 15.3896H40.9632V14.1046C40.9632 9.97419 38.1779 6.42509 33.3725 6.42509C28.6895 6.42509 25.5063 10.0354 25.5063 14.4106C25.5063 19.2447 29.0568 22.5184 33.7704 22.5184ZM29.8832 12.9726C30.1893 11.4428 31.4442 10.219 33.3419 10.219C35.1784 10.219 36.4639 11.4122 36.6475 12.9726H29.8832Z" fill="url(#paint0_linear_2_27)"/>
<path d="M50.8797 22.549C51.9509 22.549 53.2671 22.3043 54.0323 21.8147V17.9291C53.2977 18.388 52.1652 18.6634 51.2776 18.6634C49.686 18.6634 48.6759 17.6843 48.6759 16.0015V10.6473H54.0323V6.97582H48.6759V3.12076H44.3296V6.97582H41.5443V10.6473H44.3296V16.1239C44.3296 19.9178 46.5028 22.549 50.8797 22.549Z" fill="url(#paint1_linear_2_27)"/>
<path d="M62.666 22.5184C64.7474 22.5184 66.4002 21.6923 67.4715 20.3461V22.1207H71.6035V14.5024C71.6035 9.9436 68.1142 6.51688 63.37 6.51688C58.7176 6.51688 55.1671 10.1578 55.1671 14.5024C55.1671 18.9081 58.2585 22.5184 62.666 22.5184ZM63.37 18.4492C61.1356 18.4492 59.5134 16.6746 59.5134 14.5329C59.5134 12.3913 61.1356 10.6167 63.37 10.6167C65.6044 10.6167 67.2572 12.3913 67.2572 14.5329C67.2572 16.6746 65.6044 18.4492 63.37 18.4492Z" fill="url(#paint2_linear_2_27)"/>
<path d="M79.2313 22.549C81.0065 22.549 82.3533 21.4782 82.8736 19.3365L85.1386 10.3107C85.1386 10.3107 85.108 10.2801 85.1692 10.2801C85.261 10.2801 85.2304 10.3107 85.2304 10.3107L87.4954 19.3365C88.0463 21.4782 89.3625 22.549 91.1377 22.549C92.7905 22.549 94.5352 21.5394 95.0249 19.3365L97.8102 6.97582H93.8006L91.2601 18.5104C91.2601 18.5716 91.2601 18.6022 91.1683 18.6022C91.0765 18.6022 91.0765 18.5716 91.0765 18.541L88.8421 9.69883C88.3218 7.58773 87.0975 6.51688 85.1998 6.51688C83.3327 6.51688 82.0778 7.58773 81.4963 9.76002L79.2619 18.541C79.2619 18.541 79.2925 18.5716 79.2007 18.5716C79.0783 18.5716 79.1089 18.5716 79.1089 18.5104L76.4766 6.97582H72.4058L75.3135 19.3365C75.8338 21.5088 77.5479 22.549 79.2313 22.549Z" fill="url(#paint3_linear_2_27)"/>
<path d="M106.272 22.5184C110.925 22.5184 114.506 18.9081 114.506 14.5024C114.506 10.1578 110.955 6.51688 106.272 6.51688C101.651 6.51688 98.0694 10.1272 98.0694 14.5024C98.0694 18.9081 101.62 22.5184 106.272 22.5184ZM106.272 18.4492C104.038 18.4492 102.416 16.6746 102.416 14.5329C102.416 12.3913 104.038 10.6167 106.272 10.6167C108.507 10.6167 110.159 12.3913 110.159 14.5329C110.159 16.6746 108.507 18.4492 106.272 18.4492Z" fill="url(#paint4_linear_2_27)"/>
<path d="M120.672 22.1207V13.5845C120.672 11.7793 121.712 10.6779 123.426 10.6779C124.222 10.6779 125.11 10.8921 125.844 11.3204V7.0982C125.079 6.76164 124.008 6.57807 123.028 6.57807C118.529 6.57807 116.325 9.54585 116.325 13.4315V22.1207H120.672Z" fill="url(#paint5_linear_2_27)"/>
<path d="M127.763 0V22.1207H132.109V0H127.763Z" fill="url(#paint6_linear_2_27)"/>
<path d="M141.767 22.549C146.511 22.549 150 19.1529 150 14.5635V0H145.654L145.623 7.98547C144.521 7.0982 143.052 6.54748 141.522 6.54748C136.808 6.54748 133.564 9.85181 133.564 14.5635C133.564 18.9387 137.114 22.549 141.767 22.549ZM141.767 18.4492C139.532 18.4492 137.91 16.7052 137.91 14.5635C137.91 12.4218 139.532 10.6473 141.767 10.6473C144.001 10.6473 145.654 12.4218 145.654 14.5635C145.654 16.7052 144.001 18.4492 141.767 18.4492Z" fill="url(#paint7_linear_2_27)"/>
<path d="M18.5789 6.3945C16.8037 6.3945 15.4569 7.46535 14.9366 9.60705L12.6716 18.6328C12.6716 18.6328 12.7022 18.6634 12.641 18.6634C12.5492 18.6634 12.5798 18.6328 12.5798 18.6328L10.3148 9.60705C9.76388 7.46535 8.44774 6.3945 6.67249 6.3945C5.01968 6.3945 3.27503 7.40416 2.78531 9.60705L0 21.9677H4.00962L6.55006 10.4331C6.55006 10.3719 6.55006 10.3413 6.64189 10.3413C6.73371 10.3413 6.73371 10.3719 6.73371 10.4025L8.96808 19.2447C9.48841 21.3558 10.7127 22.4266 12.6104 22.4266C14.4775 22.4266 15.7324 21.3558 16.3139 19.1835L18.5483 10.4025C18.5483 10.4025 18.5177 10.3719 18.6095 10.3719C18.732 10.3719 18.7013 10.3719 18.7013 10.4331L21.3336 21.9677H25.4044L22.4967 9.60705C21.9764 7.43475 20.2623 6.3945 18.5789 6.3945Z" fill="url(#paint8_linear_2_27)"/>
<defs>
<linearGradient id="paint0_linear_2_27" x1="157.362" y1="18.2185" x2="12.3081" y2="53.4051" gradientUnits="userSpaceOnUse">
<stop/>
<stop offset="1" stop-color="#373737"/>
</linearGradient>
<linearGradient id="paint1_linear_2_27" x1="157.362" y1="18.2185" x2="12.3081" y2="53.4051" gradientUnits="userSpaceOnUse">
<stop/>
<stop offset="1" stop-color="#373737"/>
</linearGradient>
<linearGradient id="paint2_linear_2_27" x1="157.362" y1="18.2185" x2="12.3081" y2="53.4051" gradientUnits="userSpaceOnUse">
<stop/>
<stop offset="1" stop-color="#373737"/>
</linearGradient>
<linearGradient id="paint3_linear_2_27" x1="157.362" y1="18.2185" x2="12.3081" y2="53.4051" gradientUnits="userSpaceOnUse">
<stop/>
<stop offset="1" stop-color="#373737"/>
</linearGradient>
<linearGradient id="paint4_linear_2_27" x1="157.362" y1="18.2185" x2="12.3081" y2="53.4051" gradientUnits="userSpaceOnUse">
<stop/>
<stop offset="1" stop-color="#373737"/>
</linearGradient>
<linearGradient id="paint5_linear_2_27" x1="157.362" y1="18.2185" x2="12.3081" y2="53.4051" gradientUnits="userSpaceOnUse">
<stop/>
<stop offset="1" stop-color="#373737"/>
</linearGradient>
<linearGradient id="paint6_linear_2_27" x1="157.362" y1="18.2185" x2="12.3081" y2="53.4051" gradientUnits="userSpaceOnUse">
<stop/>
<stop offset="1" stop-color="#373737"/>
</linearGradient>
<linearGradient id="paint7_linear_2_27" x1="157.362" y1="18.2185" x2="12.3081" y2="53.4051" gradientUnits="userSpaceOnUse">
<stop/>
<stop offset="1" stop-color="#373737"/>
</linearGradient>
<linearGradient id="paint8_linear_2_27" x1="157.362" y1="18.2185" x2="12.3081" y2="53.4051" gradientUnits="userSpaceOnUse">
<stop/>
<stop offset="1" stop-color="#373737"/>
</linearGradient>
</defs>
</svg>
